<?xml version="1.0" encoding="UTF-8" standalone="no"?>
<svg width="53px" height="52px" viewBox="0 0 53 52" version="1.1" xmlns="http://www.w3.org/2000/svg" xmlns:xlink="http://www.w3.org/1999/xlink" xmlns:sketch="http://www.bohemiancoding.com/sketch/ns">
    <!-- Generator: Sketch 3.4 (15575) - http://www.bohemiancoding.com/sketch -->
    <title>gear</title>
    <desc>Created with Sketch.</desc>
    <defs></defs>
    <g id="Page-1" stroke="none" stroke-width="1" fill="none" fill-rule="evenodd" sketch:type="MSPage">
        <g id="Desktop" sketch:type="MSArtboardGroup" transform="translate(-743.000000, -2138.000000)" fill="#FFFFFF">
            <g id="Sub-Header" sketch:type="MSLayerGroup" transform="translate(0.000000, 2091.000000)">
                <g id="noun_18964_cc" transform="translate(736.250000, 47.000000)" sketch:type="MSShapeGroup">
                    <path d="M14.0804494,30.1090909 C14.6101236,32.2298182 15.4851798,34.2065455 16.6386629,35.9869091 L13.4175281,39.1804364 C11.9710337,40.6073455 11.985618,41.4582545 13.258427,42.7149818 L16.4006742,45.8181818 C17.6860787,47.0886545 18.5617978,47.0618182 19.9804494,45.6610909 L23.3613483,42.3104727 C24.9523596,43.2130909 26.6759551,43.9069091 28.505618,44.352 L28.505618,48.4363636 C28.505618,50.4654545 29.1281011,51.0545455 30.9193146,51.0545455 L35.3734831,51.0545455 C37.1898876,51.0545455 37.7865169,50.4255273 37.7865169,48.4363636 L37.7865169,44.352 C39.6161798,43.9069091 41.3391124,43.2130909 42.9307865,42.3104727 L46.3918989,45.7389818 C47.823809,47.1403636 48.6849438,47.1672 49.9703483,45.9104727 L53.1271798,42.7935273 C54.3854045,41.5512 54.4125843,40.6996364 52.9534944,39.2602909 L49.6388876,35.9875636 C50.8069551,34.2065455 51.6820112,32.2304727 52.2116854,30.1097455 L56.5869663,30.1097455 C58.4033708,30.1090909 59,29.4800727 59,27.4909091 L59,23.5636364 C59,21.6255273 58.4822584,20.9454545 56.5863034,20.9454545 L52.2110225,20.9454545 C51.760236,19.1389091 51.0575393,17.4377455 50.1433708,15.8661818 L53.2988764,12.7636364 C54.6910112,11.3890909 54.8096742,10.5381818 53.471236,9.22909091 L50.3157303,6.11345455 C49.0561798,4.86981818 48.1546067,4.88356364 46.7359551,6.28363636 L43.7395506,9.22909091 C41.9357416,8.09018182 39.934382,7.22552727 37.7865169,6.7032 L37.7865169,2.61818182 C37.7865169,0.680072727 37.2687753,0 35.3728202,0 L30.9186517,0 C29.1281011,0 28.505618,0.641454545 28.505618,2.61818182 L28.505618,6.70254545 C26.3577528,7.22552727 24.3557303,8.08952727 22.5525843,9.22843636 L19.5561798,6.28298182 C18.1368652,4.88290909 17.2359551,4.86916364 15.9764045,6.1128 L12.8208989,9.22843636 C11.4817978,10.5375273 11.6011236,11.3890909 12.9932584,12.7629818 L16.1355056,15.8655273 C15.2345955,17.4364364 14.531236,19.1382545 14.0804494,20.9448 L9.70516854,20.9448 C7.91461798,20.9454545 7.29213483,21.5869091 7.29213483,23.5636364 L7.29213483,27.4909091 C7.29213483,29.52 7.91461798,30.1090909 9.70583146,30.1090909 L14.0804494,30.1090909 L14.0804494,30.1090909 Z M25.5615843,25.5272727 C25.5615843,21.3905455 28.9564045,18.0399273 33.1460674,18.0399273 C37.3357303,18.0399273 40.7292247,21.3905455 40.7292247,25.5272727 C40.7292247,29.664 37.3357303,33.0159273 33.1460674,33.0159273 C28.9564045,33.0159273 25.5615843,29.664 25.5615843,25.5272727 L25.5615843,25.5272727 Z" id="gear"></path>
                </g>
            </g>
        </g>
    </g>
</svg>