<?xml version="1.0" encoding="UTF-8" standalone="no"?>
<svg width="49px" height="55px" viewBox="0 0 49 55" version="1.1" xmlns="http://www.w3.org/2000/svg" xmlns:xlink="http://www.w3.org/1999/xlink" xmlns:sketch="http://www.bohemiancoding.com/sketch/ns">
    <!-- Generator: Sketch 3.4 (15575) - http://www.bohemiancoding.com/sketch -->
    <title>maple_leaf</title>
    <desc>Created with Sketch.</desc>
    <defs></defs>
    <g id="Page-1" stroke="none" stroke-width="1" fill="none" fill-rule="evenodd" sketch:type="MSPage">
        <g id="Desktop" sketch:type="MSArtboardGroup" transform="translate(-197.000000, -2138.000000)" fill="#FFFFFF">
            <g id="Sub-Header" sketch:type="MSLayerGroup" transform="translate(0.000000, 2091.000000)">
                <path d="M221.748645,47 L217.557364,55.1738914 C217.081489,56.0622283 216.229466,55.9798444 215.376901,55.483915 L212.341705,53.8405732 L214.603468,66.3959869 C215.079344,68.689728 213.553074,68.689728 212.800237,67.6984113 L207.503819,61.4990233 L206.643667,64.6474972 C206.545023,65.0605007 206.109255,65.4946421 205.455062,65.3916622 L198.757577,63.9190501 L200.516906,70.6056955 C200.893054,72.0934836 201.18736,72.7097368 200.136965,73.1021443 L197.75,74.2750308 L209.278325,84.0657061 C209.734689,84.4358916 209.96558,85.1020088 209.80298,85.704712 L208.793778,89.1675455 C212.763381,88.6884182 216.322148,88.2602387 220.291751,87.7827373 C220.64405,87.7778593 221.228868,88.0911349 221.226158,88.5166044 L220.700418,101.199388 L222.630478,101.199388 L222.326958,88.5437043 C222.324248,88.1182349 222.854866,87.7778593 223.207707,87.7827373 C227.176768,88.2602387 230.736077,88.6884182 234.705138,89.1675455 L233.69702,85.704712 C233.53442,85.1020088 233.764769,84.4353496 234.221133,84.0657061 L245.75,74.2750308 L243.362493,73.1021443 C242.312098,72.7097368 242.605862,72.0934836 242.983094,70.6056955 L244.741881,63.9190501 L238.044938,65.3916622 C237.390745,65.4946421 236.954435,65.0610427 236.855791,64.6474972 L235.995639,61.4990233 L230.699763,67.6984113 C229.946384,68.69027 228.420656,68.69027 228.896532,66.3959869 L231.158295,53.8405732 L228.123099,55.483915 C227.271076,55.9803864 226.418511,56.0622283 225.943178,55.1738914 L221.748645,47 L221.748645,47 Z" id="maple_leaf" sketch:type="MSShapeGroup"></path>
            </g>
        </g>
    </g>
</svg>