<?xml version="1.0" encoding="UTF-8" standalone="no"?>
<svg width="194px" height="174px" viewBox="0 0 194 174" version="1.1" xmlns="http://www.w3.org/2000/svg" xmlns:xlink="http://www.w3.org/1999/xlink" xmlns:sketch="http://www.bohemiancoding.com/sketch/ns">
    <!-- Generator: Sketch 3.4.2 (15855) - http://www.bohemiancoding.com/sketch -->
    <title>sewllkwe_logo</title>
    <desc>Created with Sketch.</desc>
    <defs></defs>
    <g id="Page-1" stroke="none" stroke-width="1" fill="none" fill-rule="evenodd" sketch:type="MSPage">
        <g id="Desktop" sketch:type="MSArtboardGroup" transform="translate(-415.000000, -70.000000)">
            <g id="Mast" sketch:type="MSLayerGroup" transform="translate(-208.000000, 0.000000)">
                <g id="sewllkwe_logo" transform="translate(623.000000, 70.000000)" sketch:type="MSShapeGroup">
                    <g id="Layer_1">
                        <g id="Group" transform="translate(61.224335, 0.000000)">
                            <path d="M30.8334601,64.1948936 C38.2836502,67.6748936 40.5703422,73.746383 50.1596958,71.9693617 C53.5528517,71.3029787 58.4212928,67.0825532 59.9703422,63.972766 C62.773384,57.827234 62.9946768,50.2008511 59.3064639,42.6485106 C50.7498099,25.1004255 43.8897338,18.2885106 38.8,0.962553191 C38.6524715,0.444255319 37.9148289,0.444255319 37.7673004,0.962553191 C32.6775665,18.2885106 25.8174905,25.1004255 17.2608365,42.6485106 C13.9414449,49.386383 13.7939163,56.1242553 15.7855513,61.8995745 C15.8593156,62.1217021 16.1543726,62.2697872 16.3756654,62.2697872 C18.1460076,62.0476596 24.9323194,61.4553191 30.8334601,64.1948936 L30.8334601,64.1948936 Z" id="Shape" fill="#97D8E4"></path>
                            <path d="M64.9863118,65.5276596 C64.8387833,65.6017021 64.6912548,65.6757447 64.5437262,65.8238298 C63.9536122,66.3421277 63.5847909,66.786383 63.2159696,67.7489362 C62.6996198,68.8595745 62.0357414,69.8221277 61.4456274,70.8587234 C61.1505703,71.4510638 59.2326996,74.1906383 58.8638783,74.7089362 C58.0524715,75.7455319 56.9460076,76.8561702 56.0608365,77.8187234 C55.9870722,77.892766 55.9870722,77.892766 55.9870722,77.9668085 C55.9870722,78.1889362 56.5034221,78.1148936 56.6509506,78.1889362 C56.9460076,78.2629787 57.3148289,78.1148936 57.5361217,77.892766 C58.1262357,77.5225532 58.5688213,77.0042553 59.0114068,76.4859574 C59.4539924,76.0417021 59.8228137,75.5234043 60.191635,75.0051064 C60.5604563,74.4868085 62.4045627,71.8212766 62.6996198,71.3029787 C63.3634981,70.1923404 63.9536122,69.0817021 64.6174905,67.9710638 C64.6174905,67.8970213 64.6912548,67.8229787 64.6912548,67.8229787 C64.9863118,67.3046809 65.3551331,66.7123404 65.7239544,66.1940426 C65.8714829,65.9719149 66.1665399,65.7497872 66.1665399,65.5276596 C66.0927757,65.0834043 65.2076046,65.453617 64.9863118,65.5276596 L64.9863118,65.5276596 Z" id="Shape" fill="#8DD5E2"></path>
                            <path d="M60.781749,68.6374468 C60.5604563,69.1557447 60.4129278,69.6740426 60.1178707,70.1182979 C59.4539924,71.3029787 58.6425856,72.413617 57.7574144,73.4502128 C56.6509506,74.8570213 55.7657795,76.3378723 53.921673,77.4485106 C53.7003802,77.5965957 53.7003802,77.8187234 54.0692015,77.8187234 C54.3642586,77.8187234 54.5117871,77.8187234 54.7330798,77.7446809 C55.7657795,77.4485106 56.8722433,75.9676596 57.6098859,75.0051064 C59.3802281,72.7838298 60.9292776,70.4144681 61.9619772,67.7489362 C62.0357414,67.6008511 62.18327,67.2306383 62.0357414,67.1565957 C61.8882129,67.0825532 61.6669202,67.3046809 61.5193916,67.3787234 C61.2243346,67.7489362 61.0030418,68.1931915 60.781749,68.6374468 L60.781749,68.6374468 Z" id="Shape" fill="#A3D9E0"></path>
                            <path d="M59.3802281,69.3038298 C59.0114068,69.3038298 58.7163498,69.6 58.495057,70.1182979 C58.3475285,70.4144681 57.904943,71.1548936 57.6836502,71.4510638 C56.6509506,72.6357447 56.1346008,73.3761702 55.0281369,74.4868085 C54.5117871,75.0791489 53.8479087,75.5974468 53.1840304,76.0417021 C52.8152091,76.2638298 52.2250951,76.7080851 51.8562738,76.8561702 C51.634981,76.9302128 50.6760456,77.226383 51.1923954,77.4485106 C51.2661597,77.4485106 51.339924,77.5225532 51.4136882,77.5225532 C52.2250951,77.6706383 53.1102662,77.226383 53.7003802,76.7821277 C54.3642586,76.3378723 54.9543726,75.8195745 55.4707224,75.227234 C55.8395437,74.7089362 56.4296578,74.0425532 56.7984791,73.5242553 C57.3885932,72.7838298 57.904943,72.2655319 58.4212928,71.5251064 C58.5688213,71.3029787 59.0114068,70.6365957 59.2326996,70.0442553 C59.5277567,69.7480851 59.6015209,69.3778723 59.3802281,69.3038298 L59.3802281,69.3038298 Z" id="Shape" fill="#B4DBE0"></path>
                            <path d="M67.3467681,65.8238298 C66.3878327,66.6382979 65.8714829,67.5268085 65.2813688,69.2297872 C64.9863118,69.7480851 64.1749049,71.1548936 64.0273764,71.4510638 C62.773384,73.8204255 60.4129278,76.4119149 58.5688213,78.4110638 C58.495057,78.4851064 58.495057,78.5591489 58.495057,78.6331915 C58.495057,78.6331915 58.495057,78.6331915 58.495057,78.707234 C58.495057,78.707234 58.495057,78.707234 58.495057,78.7812766 C58.7163498,79.0774468 59.5277567,79.2255319 59.7490494,80.3361702 C60.191635,82.9276596 58.4212928,84.6306383 54.4380228,85.3710638 C47.4304183,86.5557447 40.9391635,84.852766 38.0623574,84.0382979 C33.8577947,82.853617 30.6859316,83.0017021 30.6859316,83.0017021 C30.3908745,83.0017021 29.6532319,83.0757447 29.2844106,83.0757447 C31.2760456,82.3353191 33.5627376,82.0391489 35.6281369,82.4093617 C37.7673004,82.7055319 39.7589354,83.3719149 41.8243346,83.8161702 C45.5125475,84.6306383 49.348289,85.0008511 52.9627376,84.4825532 C54.5855513,84.2604255 56.3558935,84.0382979 57.6098859,82.9276596 C58.1262357,82.4834043 58.495057,81.8910638 58.495057,81.2246809 C58.495057,80.6323404 58.1262357,79.8919149 57.6098859,79.5217021 C56.3558935,78.707234 53.7003802,78.9293617 51.2661597,78.9293617 C49.0532319,78.9293617 46.8403042,78.2629787 44.7011407,77.5225532 C42.4882129,76.7080851 35.3330798,72.5617021 33.1939163,71.0808511 C30.9809886,69.6 26.7764259,65.9719149 20.8752852,65.9719149 C5.23726236,66.0459574 -0.295057034,84.1123404 0.295057034,83.8902128 C0.368821293,83.8902128 1.62281369,83.4459574 3.24562738,83.0757447 C4.20456274,82.853617 5.1634981,82.7795745 6.19619772,82.7795745 C8.11406844,82.7055319 10.0319392,82.853617 11.8760456,83.2238298 C15.1954373,83.8902128 18.4410646,84.852766 21.4653992,86.2595745 C25.0798479,88.0365957 29.2106464,89.7395745 33.1939163,90.6280851 C37.0296578,91.5165957 41.086692,91.6646809 44.9961977,90.9242553 C49.7171103,90.0357447 54.4380228,88.7770213 58.3475285,85.9634043 C60.781749,84.186383 62.478327,81.8910638 64.1749049,79.373617 C65.3551331,77.6706383 68.0844106,73.746383 69.043346,71.8953191 C69.8547529,70.3404255 71.1087452,68.3412766 71.034981,66.5642553 C71.2562738,64.4170213 68.6745247,64.787234 67.3467681,65.8238298 L67.3467681,65.8238298 Z" id="Shape" fill="#59BAC2"></path>
                        </g>
                        <g id="Group" transform="translate(0.000000, 116.987234)" fill="#FFFFFF">
                            <path d="M0.663878327,34.8740426 L0.663878327,28.506383 L3.17186312,28.506383 L3.46692015,31.8382979 C4.72091255,32.652766 5.82737643,33.1710638 6.86007605,33.6153191 C7.89277567,33.9855319 8.85171103,34.2076596 9.66311787,34.2076596 C11.5072243,34.2076596 13.0562738,33.6153191 14.3102662,32.5046809 C15.5642586,31.3940426 16.1543726,29.9131915 16.1543726,28.1361702 C16.1543726,26.6553191 15.7855513,25.3965957 15.0479087,24.36 C14.2365019,23.3234043 12.9087452,22.2868085 10.9171103,21.1761702 L8.55665399,19.8434043 C5.75361217,18.2885106 3.83574144,16.733617 2.65551331,15.3268085 C1.47528517,13.92 0.958935361,12.2910638 0.958935361,10.44 C0.958935361,7.92255319 1.84410646,5.77531915 3.68821293,4.07234043 C5.53231939,2.3693617 7.81901141,1.55489362 10.548289,1.55489362 C12.0235741,1.55489362 13.4988593,1.70297872 14.9741445,1.92510638 C16.4494297,2.14723404 17.8509506,2.51744681 19.2524715,2.96170213 L19.2524715,8.81106383 L16.7444867,8.81106383 L16.4494297,5.62723404 C15.4904943,5.03489362 14.5315589,4.5906383 13.5726236,4.22042553 C12.6136882,3.92425532 11.7285171,3.77617021 10.7695817,3.77617021 C9.36806084,3.77617021 8.1878327,4.29446809 7.15513308,5.40510638 C6.12243346,6.51574468 5.67984791,7.84851064 5.67984791,9.40340426 C5.67984791,11.6987234 7.15513308,13.6978723 10.1794677,15.4008511 L12.539924,16.733617 C15.7855513,18.5846809 17.9984791,20.213617 19.104943,21.6204255 C20.2114068,23.027234 20.8015209,24.7302128 20.8015209,26.8034043 C20.8015209,29.5429787 19.7688213,31.9123404 17.7034221,33.6893617 C15.6380228,35.5404255 13.0562738,36.4289362 10.0319392,36.4289362 C8.26159696,36.4289362 6.56501901,36.2808511 5.01596958,36.0587234 C3.46692015,35.6885106 1.99163498,35.3182979 0.663878327,34.8740426 L0.663878327,34.8740426 Z" id="Shape"></path>
                            <path d="M44.0372624,34.4297872 C41.2342205,35.5404255 38.6524715,36.0587234 36.2920152,36.0587234 C32.7513308,36.0587234 29.8745247,34.8740426 27.661597,32.4306383 C25.4486692,29.987234 24.3422053,26.8774468 24.3422053,23.027234 C24.3422053,19.3251064 25.3749049,16.3634043 27.3665399,13.9940426 C29.3581749,11.6987234 31.939924,10.5140426 35.0380228,10.5140426 C37.9148289,10.5140426 40.1277567,11.4765957 41.7505703,13.4757447 C43.373384,15.4748936 44.1110266,18.2144681 44.1110266,21.9165957 L44.1110266,22.7310638 L29.0631179,22.7310638 C29.0631179,25.9148936 29.8007605,28.4323404 31.2022814,30.2834043 C32.6038023,32.1344681 34.521673,33.0229787 37.0296578,33.0229787 C39.4638783,33.0229787 41.8243346,32.3565957 44.1110266,31.0978723 L44.1110266,34.4297872 L44.0372624,34.4297872 Z M29.2844106,20.5097872 L39.3901141,20.5097872 L39.3901141,19.9914894 C39.3901141,15.1787234 37.8410646,12.8093617 34.81673,12.8093617 C33.1201521,12.8093617 31.8661597,13.4757447 30.9072243,14.7344681 C29.948289,15.9931915 29.4319392,17.9182979 29.2844106,20.5097872 L29.2844106,20.5097872 Z M36.513308,0 L41.6030418,0 L34.81673,6.66382979 L31.6448669,6.66382979 L36.513308,0 L36.513308,0 Z" id="Shape"></path>
                            <path d="M54.7330798,35.7625532 L48.1680608,13.3276596 L46.2501901,13.3276596 L46.2501901,11.106383 L55.8395437,11.106383 L55.8395437,13.3276596 L52.5201521,13.3276596 L57.0935361,29.0246809 L63.7323194,11.0323404 L66.1665399,11.0323404 L72.4365019,29.0246809 L77.5262357,13.253617 L74.2068441,13.253617 L74.2068441,11.0323404 L81.8045627,11.0323404 L81.8045627,13.253617 L79.886692,13.253617 L72.5840304,35.6885106 L70.3711027,35.6885106 L63.8798479,17.0297872 L56.9460076,35.6885106 L54.7330798,35.6885106 L54.7330798,35.7625532 Z" id="Shape"></path>
                            <path d="M90.5087452,0 L90.5087452,33.3191489 L93.8281369,33.3191489 L93.8281369,35.5404255 L82.7634981,35.5404255 L82.7634981,33.3191489 L86.0828897,33.3191489 L86.0828897,2.2212766 L82.7634981,2.2212766 L82.7634981,0 L90.5087452,0 L90.5087452,0 Z" id="Shape"></path>
                            <path d="M104.745247,0 L104.745247,33.3191489 L108.064639,33.3191489 L108.064639,35.5404255 L97,35.5404255 L97,33.3191489 L100.319392,33.3191489 L100.319392,2.2212766 L97,2.2212766 L97,0 L104.745247,0 L104.745247,0 Z" id="Shape"></path>
                            <path d="M119.055513,23.5455319 L119.055513,33.3191489 L121.268441,33.3191489 L121.268441,35.5404255 L111.310266,35.5404255 L111.310266,33.3191489 L114.629658,33.3191489 L114.629658,2.2212766 L111.310266,2.2212766 L111.310266,0 L119.055513,0 L119.055513,22.3608511 L120.088213,22.3608511 L128.571103,13.253617 L125.251711,13.253617 L125.251711,11.0323404 L133.808365,11.0323404 L133.808365,13.253617 L131.595437,13.253617 L124.071483,21.3242553 L134.029658,33.2451064 L136.242586,33.2451064 L136.242586,35.466383 L130.120152,35.466383 L120.088213,23.4714894 L119.055513,23.4714894 L119.055513,23.5455319 Z" id="Shape"></path>
                            <path d="M145.463118,35.7625532 L138.898099,13.3276596 L136.980228,13.3276596 L136.980228,11.106383 L146.569582,11.106383 L146.569582,13.3276596 L143.25019,13.3276596 L147.823574,29.0246809 L154.462357,11.0323404 L156.896578,11.0323404 L163.16654,29.0246809 L168.256274,13.253617 L164.936882,13.253617 L164.936882,11.0323404 L172.608365,11.0323404 L172.608365,13.253617 L170.690494,13.253617 L163.387833,35.6885106 L161.174905,35.6885106 L154.68365,17.0297872 L147.74981,35.6885106 L145.463118,35.6885106 L145.463118,35.7625532 Z" id="Shape"></path>
                            <path d="M193.557414,34.4297872 C190.754373,35.5404255 188.172624,36.0587234 185.812167,36.0587234 C182.271483,36.0587234 179.394677,34.8740426 177.181749,32.4306383 C174.968821,29.987234 173.862357,26.8774468 173.862357,23.027234 C173.862357,19.3251064 174.895057,16.3634043 176.886692,13.9940426 C178.878327,11.6987234 181.460076,10.5140426 184.558175,10.5140426 C187.434981,10.5140426 189.647909,11.4765957 191.270722,13.4757447 C192.893536,15.4748936 193.631179,18.2144681 193.631179,21.9165957 L193.631179,22.7310638 L178.509506,22.7310638 C178.509506,25.9148936 179.247148,28.4323404 180.648669,30.2834043 C182.05019,32.1344681 183.968061,33.0229787 186.476046,33.0229787 C188.910266,33.0229787 191.270722,32.3565957 193.557414,31.0978723 L193.557414,34.4297872 L193.557414,34.4297872 Z M178.804563,20.5097872 L188.910266,20.5097872 L188.910266,19.9914894 C188.910266,15.1787234 187.361217,12.8093617 184.336882,12.8093617 C182.640304,12.8093617 181.386312,13.4757447 180.427376,14.7344681 C179.542205,15.9931915 178.952091,17.9182979 178.804563,20.5097872 L178.804563,20.5097872 Z" id="Shape"></path>
                        </g>
                        <g id="Group" transform="translate(32.456274, 162.893617)" fill="#97D8E4">
                            <path d="M0.51634981,0.740425532 L2.21292776,0.740425532 L3.68821293,9.47744681 L3.98326996,9.47744681 L5.90114068,0.740425532 L7.81901141,0.740425532 L9.73688213,9.47744681 L10.0319392,9.47744681 L11.5072243,0.740425532 L13.2038023,0.740425532 L11.2121673,10.9582979 L8.55665399,10.9582979 L6.78631179,2.81361702 L5.08973384,10.9582979 L2.43422053,10.9582979 L0.51634981,0.740425532 L0.51634981,0.740425532 Z" id="Shape"></path>
                            <path d="M14.9741445,10.9582979 L17.4821293,0.740425532 L20.7277567,0.740425532 L23.2357414,10.9582979 L21.6129278,10.9582979 L21.0965779,8.73702128 L17.1870722,8.73702128 L16.6707224,10.9582979 L14.9741445,10.9582979 L14.9741445,10.9582979 Z M18.8098859,2.14723404 L17.5558935,7.33021277 L20.8015209,7.33021277 L19.5475285,2.14723404 L18.8098859,2.14723404 L18.8098859,2.14723404 Z" id="Shape"></path>
                            <path d="M24.6372624,2.2212766 L24.6372624,0.740425532 L32.0136882,0.740425532 L32.0136882,2.2212766 L29.1368821,2.2212766 L29.1368821,10.9582979 L27.5140684,10.9582979 L27.5140684,2.2212766 L24.6372624,2.2212766 L24.6372624,2.2212766 Z" id="Shape"></path>
                            <path d="M34.9642586,10.9582979 L34.9642586,0.740425532 L41.381749,0.740425532 L41.381749,2.14723404 L36.6608365,2.14723404 L36.6608365,5.03489362 L40.4965779,5.03489362 L40.4965779,6.44170213 L36.6608365,6.44170213 L36.6608365,9.40340426 L41.381749,9.40340426 L41.381749,10.8842553 L34.9642586,10.8842553 L34.9642586,10.9582979 Z" id="Shape"></path>
                            <path d="M46.1026616,7.33021277 L46.1026616,10.9582979 L44.4798479,10.9582979 L44.4798479,0.740425532 L48.3155894,0.740425532 C50.6022814,0.740425532 51.7825095,1.85106383 51.7825095,3.99829787 C51.7825095,5.47914894 51.2661597,6.44170213 50.1596958,6.96 L51.8562738,10.9582979 L50.0859316,10.9582979 L48.6106464,7.33021277 L46.1026616,7.33021277 L46.1026616,7.33021277 Z M50.0121673,3.99829787 C50.0121673,2.81361702 49.4220532,2.14723404 48.2418251,2.14723404 L46.0288973,2.14723404 L46.0288973,5.8493617 L48.2418251,5.8493617 C48.8319392,5.8493617 49.2745247,5.7012766 49.5695817,5.33106383 C49.8646388,5.03489362 50.0121673,4.5906383 50.0121673,3.99829787 L50.0121673,3.99829787 Z" id="Shape"></path>
                            <path d="M54.21673,2.2212766 L54.21673,0.740425532 L61.5931559,0.740425532 L61.5931559,2.2212766 L58.7163498,2.2212766 L58.7163498,10.9582979 L57.0935361,10.9582979 L57.0935361,2.2212766 L54.21673,2.2212766 L54.21673,2.2212766 Z" id="Shape"></path>
                            <path d="M66.1665399,7.33021277 L66.1665399,10.9582979 L64.5437262,10.9582979 L64.5437262,0.740425532 L68.3794677,0.740425532 C70.6661597,0.740425532 71.8463878,1.85106383 71.8463878,3.99829787 C71.8463878,5.47914894 71.330038,6.44170213 70.2235741,6.96 L71.9201521,10.9582979 L70.1498099,10.9582979 L68.6745247,7.33021277 L66.1665399,7.33021277 L66.1665399,7.33021277 Z M70.0760456,3.99829787 C70.0760456,2.81361702 69.4859316,2.14723404 68.3057034,2.14723404 L66.0927757,2.14723404 L66.0927757,5.8493617 L68.3057034,5.8493617 C68.8958175,5.8493617 69.338403,5.7012766 69.6334601,5.33106383 C69.9285171,4.96085106 70.0760456,4.5906383 70.0760456,3.99829787 L70.0760456,3.99829787 Z" id="Shape"></path>
                            <path d="M74.5019011,10.9582979 L77.0098859,0.740425532 L80.2555133,0.740425532 L82.7634981,10.9582979 L81.1406844,10.9582979 L80.6243346,8.73702128 L76.7148289,8.73702128 L76.1984791,10.9582979 L74.5019011,10.9582979 L74.5019011,10.9582979 Z M78.2638783,2.14723404 L77.0098859,7.33021277 L80.2555133,7.33021277 L79.0015209,2.14723404 L78.2638783,2.14723404 L78.2638783,2.14723404 Z" id="Shape"></path>
                            <path d="M88.8859316,11.106383 C87.4106464,11.106383 86.3779468,10.6621277 85.861597,9.84765957 C85.3452471,9.03319149 85.0501901,7.70042553 85.0501901,5.77531915 C85.0501901,3.92425532 85.3452471,2.51744681 85.861597,1.77702128 C86.3779468,0.962553191 87.4106464,0.592340426 88.8859316,0.592340426 C89.7711027,0.592340426 90.730038,0.740425532 91.7627376,0.962553191 L91.6889734,2.29531915 C90.8038023,2.14723404 89.9186312,2.07319149 89.0334601,2.07319149 C88.148289,2.07319149 87.5581749,2.3693617 87.2631179,2.88765957 C86.9680608,3.40595745 86.8205323,4.44255319 86.8205323,5.8493617 C86.8205323,7.25617021 86.9680608,8.29276596 87.2631179,8.81106383 C87.5581749,9.3293617 88.148289,9.62553191 89.0334601,9.62553191 C89.9186312,9.62553191 90.8038023,9.55148936 91.7627376,9.40340426 L91.8365019,10.7361702 C90.8038023,10.9582979 89.8448669,11.106383 88.8859316,11.106383 L88.8859316,11.106383 Z" id="Shape"></path>
                            <path d="M96.5574144,10.9582979 L94.9346008,10.9582979 L94.9346008,0.740425532 L96.5574144,0.740425532 L96.5574144,5.33106383 L98.0326996,5.18297872 L100.098099,0.740425532 L102.01597,0.740425532 L99.5079848,5.8493617 L102.089734,10.8842553 L100.171863,10.8842553 L98.0326996,6.66382979 L96.5574144,6.73787234 L96.5574144,10.9582979 L96.5574144,10.9582979 Z" id="Shape"></path>
                            <path d="M104.96654,10.9582979 L104.96654,0.740425532 L106.589354,0.740425532 L106.589354,10.9582979 L104.96654,10.9582979 L104.96654,10.9582979 Z" id="Shape"></path>
                            <path d="M110.277567,10.9582979 L110.277567,0.740425532 L113.154373,0.740425532 L116.252471,9.47744681 L116.473764,9.47744681 L116.473764,0.740425532 L118.096578,0.740425532 L118.096578,10.9582979 L115.293536,10.9582979 L112.121673,2.2212766 L111.90038,2.2212766 L111.90038,10.9582979 L110.277567,10.9582979 L110.277567,10.9582979 Z" id="Shape"></path>
                            <path d="M125.989354,7.03404255 L125.989354,5.55319149 L128.86616,5.55319149 L128.86616,10.7361702 C128.571103,10.8102128 128.054753,10.8842553 127.243346,10.9582979 C126.431939,11.0323404 125.841825,11.106383 125.473004,11.106383 C123.923954,11.106383 122.891255,10.6621277 122.301141,9.84765957 C121.711027,8.95914894 121.41597,7.62638298 121.41597,5.8493617 C121.41597,3.99829787 121.711027,2.73957447 122.301141,1.85106383 C122.891255,1.03659574 123.923954,0.592340426 125.39924,0.592340426 C126.284411,0.592340426 127.243346,0.666382979 128.34981,0.888510638 L128.86616,0.962553191 L128.792395,2.29531915 C127.612167,2.14723404 126.505703,2.07319149 125.546768,2.07319149 C124.587833,2.07319149 123.923954,2.3693617 123.628897,2.88765957 C123.260076,3.40595745 123.112548,4.44255319 123.112548,5.8493617 C123.112548,7.25617021 123.260076,8.29276596 123.628897,8.81106383 C123.923954,9.3293617 124.661597,9.62553191 125.620532,9.62553191 C126.358175,9.62553191 126.874525,9.55148936 127.243346,9.47744681 L127.243346,6.96 L125.989354,6.96 L125.989354,7.03404255 Z" id="Shape"></path>
                        </g>
                    </g>
                </g>
            </g>
        </g>
    </g>
</svg>