<?xml version="1.0" encoding="UTF-8" standalone="no"?>
<svg width="44px" height="50px" viewBox="0 0 44 50" version="1.1" xmlns="http://www.w3.org/2000/svg" xmlns:xlink="http://www.w3.org/1999/xlink" xmlns:sketch="http://www.bohemiancoding.com/sketch/ns">
    <!-- Generator: Sketch 3.4 (15575) - http://www.bohemiancoding.com/sketch -->
    <title>share</title>
    <desc>Created with Sketch.</desc>
    <defs></defs>
    <g id="Page-1" stroke="none" stroke-width="1" fill="none" fill-rule="evenodd" sketch:type="MSPage">
        <g id="Desktop" sketch:type="MSArtboardGroup" transform="translate(-491.000000, -2138.000000)" fill="#FFFFFF">
            <g id="Sub-Header" sketch:type="MSLayerGroup" transform="translate(0.000000, 2091.000000)">
                <g id="noun_190039_cc" transform="translate(486.250000, 47.000000)" sketch:type="MSShapeGroup">
                    <path d="M40.0695652,17.1411765 C38.4521739,17.1411765 36.9913043,17.610084 35.7391304,18.4436975 L20.4,8.44033613 C20.4,8.23193277 20.4521739,8.02352941 20.4521739,7.81512605 C20.4521739,3.54285714 17.0086957,0.104201681 12.7304348,0.104201681 C8.45217391,0.104201681 5.00869565,3.59495798 5.00869565,7.81512605 C5.00869565,12.0352941 8.45217391,15.5260504 12.7304348,15.5260504 C14.5565217,15.5260504 16.226087,14.8487395 17.5826087,13.7546218 L32.5043478,23.4453782 C32.4,23.9663866 32.3478261,24.3831933 32.3478261,24.8521008 C32.3478261,25.2689076 32.4,25.6336134 32.4521739,26.0504202 L17.1652174,35.5848739 C15.9130435,34.6991597 14.4,34.1781513 12.7304348,34.1781513 C8.45217391,34.1781513 5.00869565,37.6168067 5.00869565,41.8890756 C5.00869565,46.1613445 8.45217391,49.6 12.7304348,49.6 C17.0086957,49.6 20.4521739,46.1613445 20.4521739,41.8890756 C20.4521739,41.4722689 20.4,41.107563 20.3478261,40.6907563 L35.6347826,31.1563025 C36.8869565,32.0420168 38.4,32.5630252 40.0695652,32.5630252 C44.3478261,32.5630252 47.7913043,29.1243697 47.7913043,24.8521008 C47.7913043,20.5798319 44.3478261,17.1411765 40.0695652,17.1411765 L40.0695652,17.1411765 Z" id="share"></path>
                </g>
            </g>
        </g>
    </g>
</svg>